#!OML:ASF E:\emotionWalksFemale\Project 1\Capture day 1\Session 1\Female1.ASF
:FULLY-SPECIFIED
:DEGREES
323
root 8.52993 17.5852 19.208 361.445 19.8645 -367.243
lowerback 11.5515 0.51812 -0.729129
upperback -4.08482 0.605421 0.228786
thorax -10.9374 0.350421 0.532869
lowerneck -10.8986 -3.67812 -8.89862
upperneck 4.99255 -4.49241 10.6158
head 3.71537 -1.89901 4.42229
rclavicle -1.27968e-014 2.38542e-014
rhumerus -68.8472 18.0789 -98.2492
rradius 29.6003
rwrist 16.2322
rhand 10.5963 -45.2284
rfingers 7.12502
rthumb 35.6917 -431.62
lclavicle -1.27968e-014 2.38542e-014
lhumerus -18.7985 -24.0253 80.2973
lradius 28.0832
lwrist -40.0378
lhand 14.473 -33.7525
lfingers 7.12502
lthumb 39.3554 -8.33522
rfemur -6.81975 -3.01122 31.1066
rtibia 12.7396
rfoot 18.7476 -30.1932
rtoes 22.7417
lfemur -20.0823 -23.194 -13.1337
ltibia 29.1568
lfoot 23.2428 13.6275
ltoes -2.75393
324
root 8.4988 17.2504 19.1931 361.54 21.8211 -367.525
lowerback 11.8832 0.714561 -0.503489
upperback -3.97584 0.895019 0.146405
thorax -11.0125 0.468976 0.252927
lowerneck -10.7671 -4.65654 -9.60821
upperneck 4.06062 -5.73084 11.584
head 3.59153 -2.49031 4.75126
rclavicle 3.00662e-015 -3.89618e-014
rhumerus -68.5971 17.1155 -96.5523
rradius 29.7173
rwrist 15.4514
rhand 12.1923 -44.7464
rfingers 7.12502
rthumb 37.2026 -430.758
lclavicle 3.00662e-015 -3.89618e-014
lhumerus -18.6372 -22.9263 78.9241
lradius 27.9608
lwrist -39.8639
lhand 13.8602 -33.866
lfingers 7.12502
lthumb 38.7777 -8.28265
rfemur -8.41675 -4.95008 31.6472
rtibia 15.2687
rfoot 19.8133 -27.8176
rtoes 21.3111
lfemur -21.0195 -22.8459 -12.6699
ltibia 30.259
lfoot 23.5231 10.4197
ltoes -3.43034
325
root 8.46849 16.898 19.1719 361.665 23.774 -367.695
lowerback 12.1908 0.880791 -0.358066
upperback -3.86018 1.13548 0.098577
thorax -11.0645 0.570855 0.0643338
lowerneck -10.2347 -5.6028 -9.89852
upperneck 2.67569 -6.91157 11.711
head 3.23213 -3.1017 4.7604
rclavicle -5.35725e-014 -2.38542e-015
rhumerus -68.4468 16.3426 -94.8693
rradius 29.8343
rwrist 14.6972
rhand 13.3306 -44.3918
rfingers 7.12502
rthumb 38.278 -430.115
lclavicle -5.35725e-014 -2.38542e-015
lhumerus -18.4678 -21.4846 77.5931
lradius 27.7679
lwrist -39.8027
lhand 13.3211 -33.9386
lfingers 7.12502
lthumb 38.2691 -8.21315
rfemur -10.5179 -6.91686 32.0851
rtibia 18.9152
rfoot 19.2951 -25.2949
rtoes 21.6254
lfemur -21.9757 -22.0075 -12.4935
ltibia 32.1359
lfoot 19.0053 5.80009
ltoes -14.7474
326
root 8.43486 16.5225 19.1353 361.872 25.7779 -367.814
lowerback 12.5997 0.919719 -0.325286
upperback -3.72896 1.19979 0.179124
thorax -11.1624 0.601693 0.113881
lowerneck -9.71197 -6.39691 -10.2281
upperneck 1.13122 -7.8723 11.8916
head 2.81259 -3.6035 4.8195
rclavicle -2.50966e-014 -8.74653e-015
rhumerus -68.0309 15.7259 -92.8121
rradius 29.9598
rwrist 13.9848
rhand 14.7848 -44.669
rfingers 7.12502
rthumb 39.6491 -430
lclavicle -2.50966e-014 -8.74653e-015
lhumerus -18.2674 -19.3035 76.2438
lradius 27.4882
lwrist -40.2183
lhand 12.9169 -34.0396
lfingers 7.12502
lthumb 37.8874 -8.20984
rfemur -13.0245 -8.89065 32.5086
rtibia 23.4927
rfoot 12.0878 -22.8442
rtoes 25.8199
lfemur -22.9264 -20.583 -12.5542
ltibia 34.7281
lfoot 7.74858 1.38184
ltoes -22.9214
327
root 8.39493 16.1208 19.0751 362.103 27.7779 -367.928
lowerback 13.2845 0.910345 -0.269593
upperback -3.59736 1.20709 0.295419
thorax -11.4238 0.60474 0.197513
lowerneck -9.00578 -7.09038 -10.7523
upperneck -0.871309 -8.67215 12.4338
head 2.24503 -4.02489 5.05418
rclavicle 3.89618e-014 1.35174e-014
rhumerus -67.2574 15.1181 -90.4993
rradius 30.0739
rwrist 13.098
rhand 16.6043 -45.7107
rfingers 7.12502
rthumb 41.3595 -430.512
lclavicle 3.89618e-014 1.35174e-014
lhumerus -18.0167 -16.2678 74.774
lradius 27.0126
lwrist -41.421
lhand 11.2778 -34.5296
lfingers 7.12502
lthumb 36.3373 -8.29671
rfemur -14.9891 -12.8633 33.5734
rtibia 28.5432
rfoot 2.78795 -14.9335
rtoes -0.362044
lfemur -23.9359 -19.2386 -12.6555
ltibia 37.2958
lfoot -2.65268 -1.19603
ltoes -27.6733
328
root 8.35244 15.7701 19.0152 362.244 29.6848 -368.127
lowerback 14.1221 0.932442 0.00520825
upperback -3.43386 1.30227 0.442737
thorax -11.7359 0.634879 0.168688
lowerneck -8.23093 -7.87003 -11.4836
upperneck -3.0893 -9.56063 13.1826
head 1.64909 -4.48936 5.39622
rclavicle -5.68524e-014 -3.18055e-015
rhumerus -66.4699 14.8246 -88.5002
rradius 30.2062
rwrist 11.8648
rhand 17.5708 -47.2629
rfingers 7.12502
rthumb 42.2658 -431.763
lclavicle -5.68524e-014 -3.18055e-015
lhumerus -17.6557 -12.2664 73.304
lradius 26.1196
lwrist -43.6773
lhand 9.66277 -35.4246
lfingers 7.12502
lthumb 34.8064 -8.82352
rfemur -17.4453 -16.6742 34.8557
rtibia 33.4468
rfoot 1.21654 -11.827
rtoes -36.3866
lfemur -25.1632 -18.3861 -12.6234
ltibia 39.8466
lfoot -10.0153 -1.81772
ltoes -37.8441
329
root 8.3078 15.5277 18.9715 362.308 31.4909 -368.407
lowerback 15.0314 0.934985 0.480336
upperback -3.27137 1.41596 0.579673
thorax -12.0855 0.657946 0.00820202
lowerneck -7.69256 -8.638 -12.119
upperneck -5.04917 -10.4364 13.9317
head 1.17784 -4.93822 5.72154
rclavicle -6.02318e-014 1.27222e-014
rhumerus -65.4893 14.5954 -86.6271
rradius 30.0489
rwrist 11.1799
rhand 18.0575 -48.9399
rfingers 7.12502
rthumb 42.7214 -433.284
lclavicle -6.02318e-014 1.27222e-014
lhumerus -17.4723 -7.67519 71.7584
lradius 25.184
lwrist -46.0777
lhand 7.56705 -36.3021
lfingers 7.12502
lthumb 32.8153 -9.26312
rfemur -20.2709 -18.8326 35.9355
rtibia 37.9212
rfoot -6.31285 -13.4436
rtoes -15.7547
lfemur -27.3068 -18.6216 -11.968
ltibia 41.8301
lfoot -16.0361 -3.2216
ltoes -16.3172
330
root 8.25869 15.1981 18.9161 362.619 33.0862 -368.313
lowerback 15.9078 0.907297 0.522909
upperback -3.11089 1.39781 0.615628
thorax -12.4239 0.645085 0.0150122
lowerneck -7.47868 -9.26942 -12.3087
upperneck -6.69635 -11.1467 14.4541
head 0.801335 -5.30034 5.90678
rclavicle 2.14687e-014 0
rhumerus -64.0238 14.3829 -84.6311
rradius 29.5487
rwrist 11.7518
rhand 18.9608 -50.4893
rfingers 7.12502
rthumb 43.5658 -434.532
lclavicle 2.14687e-014 0
lhumerus -17.91 -3.94724 70.0035
lradius 24.9642
lwrist -46.6266
lhand 5.88948 -36.1537
lfingers 7.12502
lthumb 31.218 -8.79402
rfemur -22.6427 -19.3141 36.4873
rtibia 41.2838
rfoot -11.9687 -15.891
rtoes -1.66434
lfemur -29.2233 -18.0807 -12.1266
ltibia 44.0008
lfoot -23.6234 -1.84501
ltoes -28.2136
331
root 8.20749 14.9012 18.8577 363.334 34.4048 -368.113
lowerback 16.4872 0.927672 0.350572
upperback -3.04399 1.39892 0.660307
thorax -12.6976 0.658464 0.153065
lowerneck -7.21124 -9.85183 -12.4509
upperneck -8.3425 -11.7933 14.967
head 0.411201 -5.63608 6.09439
rclavicle -5.89397e-014 -3.18055e-015
rhumerus -62.3808 14.3741 -82.6556
rradius 29.1088
rwrist 12.8124
rhand 19.1819 -52.1192
rfingers 7.12502
rthumb 43.7722 -436.086
lclavicle -5.89397e-014 -3.18055e-015
lhumerus -18.6209 -0.421203 68.142
lradius 24.7753
lwrist -46.4802
lhand 6.32613 -36.1732
lfingers 7.12502
lthumb 31.634 -8.8945
rfemur -24.9992 -19.1645 37.0735
rtibia 44.0158
rfoot -18.4021 -19.5325
rtoes -3.17744
lfemur -31.4105 -17.5731 -12.2187
ltibia 46.6323
lfoot -29.0659 -0.988366
ltoes -29.9383
332
root 8.15537 14.7421 18.8153 365.491 35.2212 -366.374
lowerback 16.4715 1.33101 -1.38193
upperback -3.10659 1.55536 0.530782
thorax -12.808 0.85521 0.949973
lowerneck -6.84726 -10.4773 -13.4043
upperneck -10.0039 -12.4426 15.9712
head 0.0998197 -5.95877 6.56563
rclavicle 1.7344e-013 1.59028e-014
rhumerus -60.7955 14.5206 -80.5642
rradius 28.8845
rwrist 13.8867
rhand 18.4301 -53.477
rfingers 7.12502
rthumb 43.0699 -437.698
lclavicle 1.7344e-013 1.59028e-014
lhumerus -19.363 3.54069 66.5239
lradius 24.401
lwrist -46.881
lhand 8.80917 -35.5213
lfingers 7.12502
lthumb 33.996 -8.73664
rfemur -27.5189 -18.281 36.4307
rtibia 46.2672
rfoot -23.035 -22.8199
rtoes 3.18264
lfemur -34.5278 -16.7932 -13.8043
ltibia 50.5008
lfoot -31.9709 1.96869
ltoes -42.6346
333
root 8.10878 14.4961 18.7584 367.116 35.9962 -365.383
lowerback 16.8044 1.39313 -2.09411
upperback -3.14135 1.44467 0.25407
thorax -13.0563 0.84507 1.07117
lowerneck -6.66056 -10.9017 -13.2848
upperneck -11.7662 -12.8461 16.6316
head -0.33232 -6.18488 6.78828
rclavicle -4.07509e-015 2.54444e-014
rhumerus -58.7986 14.6527 -79.0434
rradius 28.5858
rwrist 15.8128
rhand 18.7619 -53.8837
rfingers 7.12502
rthumb 43.38 -437.994
lclavicle -4.07509e-015 2.54444e-014
lhumerus -20.6956 6.32267 64.0635
lradius 24.37
lwrist -47.4396
lhand 7.63212 -34.843
lfingers 7.12502
lthumb 32.8772 -7.81697
rfemur -30.2238 -17.0134 36.2965
rtibia 49.0771
rfoot -29.8272 -24.3076
rtoes 4.35437
lfemur -39.2231 -16.5302 -14.3766
ltibia 54.904
lfoot -32.5079 -1.80265
ltoes -34.7605
334
root 8.06154 14.2244 18.6972 368.059 36.7107 -365.017
lowerback 17.412 1.45069 -2.32783
upperback -2.9997 1.44969 0.205689
thorax -13.2606 0.862246 1.13949
lowerneck -6.50698 -11.2963 -13.627
upperneck -13.5966 -13.1502 17.5512
head -0.734135 -6.35218 7.17667
rclavicle 1.67973e-014 1.66979e-014
rhumerus -56.3783 14.3449 -76.9786
rradius 28.2687
rwrist 18.3756
rhand 19.31 -53.8821
rfingers 7.12502
rthumb 43.8918 -437.805
lclavicle 1.67973e-014 1.66979e-014
lhumerus -22.0747 8.29103 61.9436
lradius 24.5581
lwrist -47.375
lhand 9.05456 -34.4052
lfingers 7.12502
lthumb 34.2291 -7.67257
rfemur -32.8004 -15.386 36.4692
rtibia 52.301
rfoot -32.6205 -26.6821
rtoes 4.71894
lfemur -43.5383 -16.6044 -14.3809
ltibia 59.4709
lfoot -31.1874 -1.05332
ltoes -31.338
335
root 8.01259 14.0739 18.6484 368.429 37.2361 -365.139
lowerback 17.9959 1.63096 -2.1103
upperback -2.71159 1.73978 0.306175
thorax -13.2814 0.981571 1.03632
lowerneck -6.19969 -11.7669 -14.2763
upperneck -15.4003 -13.5632 18.3999
head -1.11575 -6.56641 7.5969
rclavicle 3.11098e-014 -7.15625e-015
rhumerus -53.8859 13.6811 -74.6848
rradius 28.0485
rwrist 20.3671
rhand 18.0815 -54.1758
rfingers 7.12502
rthumb 42.7438 -438.512
lclavicle 3.11098e-014 -7.15625e-015
lhumerus -22.9457 10.8818 60.1943
lradius 24.1607
lwrist -48.1348
lhand 11.5296 -35.5103
lfingers 7.12502
lthumb 36.5757 -9.33729
rfemur -35.7728 -13.863 36.9528
rtibia 56.1593
rfoot -32.8795 -28.4782
rtoes 6.09461
lfemur -46.5668 -16.0544 -14.236
ltibia 63.2237
lfoot -31.6091 -0.774093
ltoes -33.8024
336
root 7.97354 13.9054 18.5984 368.407 37.508 -365.586
lowerback 18.488 1.89607 -1.52626
upperback -2.3154 2.24352 0.495914
thorax -13.1157 1.17566 0.76194
lowerneck -6.01246 -12.2707 -14.597
upperneck -16.9915 -14.0786 18.6646
head -1.47999 -6.821 7.77019
rclavicle -1.14301e-014 -6.36111e-015
rhumerus -51.4092 13.386 -72.7392
rradius 28.1334
rwrist 20.6471
rhand 16.4327 -55.0134
rfingers 7.12502
rthumb 41.1985 -439.866
lclavicle -1.14301e-014 -6.36111e-015
lhumerus -23.7263 14.5511 58.4546
lradius 23.3355
lwrist -50.0482
lhand 11.4386 -36.8658
lfingers 7.12502
lthumb 36.4895 -10.6711
rfemur -38.3562 -11.9196 37.461
rtibia 59.7599
rfoot -32.9695 -30.0565
rtoes 11.0041
lfemur -48.8931 -15.3975 -13.9687
ltibia 66.477
lfoot -32.825 -0.361903
ltoes -37.2677
